<?xml version="1.0" encoding="utf-8" ?>	<!-- Generator: Assembly 2.4 - http://assemblyapp.co -->	<svg version="1.1" xmlns="http://www.w3.org/2000/svg" xmlns:xlink="http://www.w3.org/1999/xlink" width="60.00" height="60.00" viewBox="0 0 30.0 30.0">		<g id="document" transform="scale(0.1 0.1) translate(150.0 150.0)">			<path d="M98.5447,-23.942 C33.8948,-26.3282 28.1297,-29.4776 23.1428,-26.725 C18.156,-23.9725 14.2595,-19.5243 12.5548,-13.6193 C12.152,-12.2808 11.8757,-11.4691 11.5364,-10.5267 C10.5177,-7.69775 9.22101,-4.48876 7.63218,-0.999721 C3.0526,9.05701 -2.87602,19.125 -10.2192,28.4281 C-16.1648,35.9607 -22.7965,42.663 -30.1298,48.3485 C-38.6744,54.9731 -49.5825,61.3141 -62.2716,67.2118 C-75.2822,73.259 -89.3781,78.4956 -103.49,82.8604 C-108.44,84.3911 -113.024,85.6992 -117.115,86.7825 C-118.525,87.1559 -119.764,87.4727 -120.818,87.733 C-121.413,87.8801 -121.792,87.9705 -121.937,88.0041 C-147.689,93.9649 -143.428,131.853 -116.995,131.945 L-50.1469,132.177 C-49.6944,132.179 -49.2418,132.166 -48.79,132.14 C-48.0869,132.1 -47.036,132.018 -45.682,131.88 C-43.571,131.665 -41.2547,131.367 -38.7758,130.969 C-31.6416,129.824 -24.4708,128.083 -17.5564,125.552 C-15.3697,124.751 -13.2367,123.88 -11.1621,122.931 C-5.86042,120.506 -0.680977,117.465 4.39123,113.948 C8.57633,111.047 12.4707,107.974 16.0179,104.892 C17.2725,103.802 18.405,102.779 19.4056,101.842 C20.055,101.233 20.5488,100.756 20.8761,100.431 C21.2866,100.022 21.681,99.5983 22.0585,99.1593 L100.911,7.4453 C108.925,-1.87559 119.324,-23.175 98.5447,-23.942 Z " fill="#56e8a0" fill-opacity="1.00" />			<path d="M-9.74305,15.3279 C-6.07133,14.6847 -13.8284,-4.67245 -10.7149,-4.66022 C-7.60129,-4.64799 11.8207,8.66269 12.1765,8.66234 C13.6108,8.66093 14.5273,7.11099 13.8023,5.84509 C13.6254,5.53634 -7.64836,-4.97389 -9.07877,-7.47143 C-10.5092,-9.96898 8.70706,-10.959 7.39528,-13.6546 C6.63238,-15.2223 4.36213,-15.885 2.92426,-14.8888 C-1.3109,-11.9545 -10.2577,-12.0371 -12.8384,-7.87719 C-15.8744,-2.98339 -12.2124,6.33198 -12.734,12.0386 C-12.8975,13.8271 -11.4384,15.6249 -9.74305,15.3279 Z " fill="#56e8a0" fill-opacity="1.00" />			<path d="M87.8448,38.1 C86.5703,34.534 107.561,31.672 105.988,28.9279 C104.415,26.1838 82.9109,15.7081 82.7327,15.3937 C82.0142,14.1261 82.9233,12.5388 84.4053,12.5439 C84.7668,12.5452 104.726,26.0619 107.65,26.072 C110.574,26.0822 101.805,8.61181 104.844,8.4178 C106.612,8.30496 108.337,9.97768 108.178,11.7477 C107.712,16.961 112.274,24.8222 109.895,29.1893 C107.096,34.3268 97.03,35.7668 92.2512,39.0912 C90.7534,40.1332 88.4332,39.7465 87.8448,38.1 Z " fill="#56e8a0" fill-opacity="1.00" />			<path d="M70.1287,-15.1324 C96.7199,-15.0401 118.321,-36.4915 118.413,-63.0826 C118.505,-89.6737 97.0541,-111.275 70.4629,-111.367 C43.8718,-111.459 22.2709,-90.0079 22.1786,-63.4168 C22.0862,-36.8257 43.5376,-15.2248 70.1287,-15.1324 Z " fill="#fffb8b" fill-opacity="1.00" />			<path d="M76.4378,-68.9843 C77.9258,-79.9473 70.2359,-90.0525 59.2728,-91.5405 C48.3098,-93.0285 38.2046,-85.3386 36.7166,-74.3756 C35.2286,-63.4125 42.9185,-53.3073 53.8816,-51.8193 C64.8446,-50.3313 74.9498,-58.0212 76.4378,-68.9843 Z M58.1946,-83.5963 C64.7883,-82.7013 69.3885,-76.6563 68.4936,-70.0625 C67.5986,-63.4688 61.5535,-58.8686 54.9598,-59.7636 C48.3661,-60.6585 43.7659,-66.7036 44.6608,-73.2973 C45.5558,-79.891 51.6009,-84.4912 58.1946,-83.5963 Z " fill="#ffffff" fill-opacity="1.00" />			<path d="M68.5091,-71.6385 C68.532,-78.2249 63.205,-83.5889 56.6186,-83.6118 C50.0322,-83.6347 44.6682,-78.3078 44.6453,-71.7214 C44.6224,-65.135 49.9494,-59.7709 56.5358,-59.748 C63.1222,-59.7252 68.4862,-65.0521 68.5091,-71.6385 Z M56.6021,-78.8391 C60.5634,-78.8253 63.7501,-75.6164 63.7363,-71.6551 C63.7226,-67.6937 60.5137,-64.507 56.5523,-64.5208 C52.591,-64.5346 49.4043,-67.7434 49.4181,-71.7048 C49.4318,-75.6662 52.6407,-78.8528 56.6021,-78.8391 Z " fill="#4363d8" fill-opacity="1.00" />			<path d="M56.6021,-78.8391 C60.5634,-78.8253 63.7501,-75.6164 63.7363,-71.6551 C63.7226,-67.6937 60.5137,-64.507 56.5523,-64.5208 C52.591,-64.5346 49.4043,-67.7434 49.4181,-71.7048 C49.4318,-75.6662 52.6407,-78.8528 56.6021,-78.8391 Z " fill="#000000" fill-opacity="1.00" />			<path d="M116.499,-60.7323 C117.987,-71.6954 110.297,-81.8006 99.3339,-83.2886 C88.3708,-84.7766 78.2656,-77.0867 76.7777,-66.1236 C75.2897,-55.1606 82.9796,-45.0554 93.9426,-43.5674 C104.906,-42.0794 115.011,-49.7693 116.499,-60.7323 Z M98.2556,-75.3443 C104.849,-74.4494 109.45,-68.4043 108.555,-61.8106 C107.66,-55.2169 101.615,-50.6167 95.0209,-51.5116 C88.4272,-52.4066 83.8269,-58.4516 84.7219,-65.0454 C85.6169,-71.6391 91.6619,-76.2393 98.2556,-75.3443 Z " fill="#ffffff" fill-opacity="1.00" />			<path d="M108.57,-63.3865 C108.593,-69.9729 103.266,-75.337 96.6797,-75.3599 C90.0933,-75.3827 84.7293,-70.0558 84.7064,-63.4694 C84.6835,-56.883 90.0104,-51.519 96.5968,-51.4961 C103.183,-51.4732 108.547,-56.8001 108.57,-63.3865 Z M96.6631,-70.5871 C100.625,-70.5733 103.811,-67.3645 103.797,-63.4031 C103.784,-59.4417 100.575,-56.2551 96.6134,-56.2688 C92.652,-56.2826 89.4654,-59.4915 89.4791,-63.4528 C89.4929,-67.4142 92.7017,-70.6009 96.6631,-70.5871 Z " fill="#4363d8" fill-opacity="1.00" />			<path d="M96.6631,-70.5871 C100.625,-70.5733 103.811,-67.3645 103.797,-63.4031 C103.784,-59.4417 100.575,-56.2551 96.6134,-56.2688 C92.652,-56.2826 89.4654,-59.4915 89.4791,-63.4528 C89.4929,-67.4142 92.7017,-70.6009 96.6631,-70.5871 Z " fill="#000000" fill-opacity="1.00" />			<path d="M81.3898,-36.4114 C74.8737,-31.7033 65.7852,-33.1672 61.0771,-39.6833 C59.6073,-41.7174 56.7668,-42.175 54.7326,-40.7052 L50.8637,-37.9098 C48.8296,-36.44 48.372,-33.5995 49.8418,-31.5653 C59.0269,-18.8531 76.7955,-15.991 89.5077,-25.1761 C91.5419,-26.6459 91.9994,-29.4864 90.5297,-31.5206 L87.7342,-35.3894 C86.2645,-37.4236 83.424,-37.8812 81.3898,-36.4114 Z " fill="#fc3f46" fill-opacity="1.00" />			<path d="M69.0005,-45.4083 C70.538,-43.2804 73.5369,-42.7973 75.6648,-44.3348 L72.8694,-48.2037 L69.0005,-45.4083 Z " fill="#fc3f46" fill-opacity="1.00" />			<path d="M65.3173,-42.747 C68.3245,-38.5849 74.164,-37.6444 78.326,-40.6516 C80.3602,-42.1214 80.8178,-44.9619 79.348,-46.9961 L76.5526,-50.8649 C75.0828,-52.8991 72.2423,-53.3566 70.2081,-51.8869 L66.3392,-49.0915 C64.3051,-47.6217 63.8475,-44.7812 65.3173,-42.747 Z " fill="#e7ad00" fill-opacity="1.00" />			<path d="M73.979,-71.1304 C107.797,-68.0167 136.554,-79.7303 138.169,-97.2769 C139.785,-114.823 113.65,-131.591 79.8325,-134.705 C46.015,-137.819 17.2576,-126.105 15.6421,-108.558 C14.0265,-91.0118 40.1614,-74.2441 73.979,-71.1304 Z M113.664,-99.5332 C112.692,-88.9798 95.4893,-81.9726 75.1497,-83.8453 C54.8102,-85.718 39.1759,-95.7487 40.1475,-106.302 C41.1192,-116.855 58.3223,-123.863 78.6618,-121.99 C99.0014,-120.117 114.636,-110.087 113.664,-99.5332 Z " fill="#e7ad00" fill-opacity="0.71" />		</g>	</svg>