<?xml version="1.0" encoding="utf-8" ?>	<!-- Generator: Assembly 2.4 - http://assemblyapp.co -->	<svg version="1.1" xmlns="http://www.w3.org/2000/svg" xmlns:xlink="http://www.w3.org/1999/xlink" width="30.00" height="30.00" viewBox="0 0 30.0 30.0">		<g id="document" transform="scale(0.1 0.1) translate(150.0 150.0)">			<g>				<path d="M102.313,78.4503 C102.313,52.4417 102.037,-70.0707 102.037,-73.4475 C101.93,-47.3634 56.1423,-26.2332 -0.324935,-26.2332 C-54.3113,-26.2332 -98.5365,-45.4562 -102.411,-69.9483 C-102.411,-57.1751 -102.411,56.0547 -102.411,78.4503 C-102.305,52.3662 -56.2409,34.7351 0.226267,34.7351 C54.2126,34.7351 98.4378,53.9582 102.313,78.4503 Z " fill="#9ad33d" fill-opacity="1.00" />				<path d="M-102.411,5.66336 L-102.295,82.3088 C-99.725,107.378 -54.931,127.338 -0.0493341,127.338 C56.4837,127.338 102.313,106.158 102.313,80.0325 C102.313,67.4674 102.196,14.7397 102.196,3.38701 C99.6263,-21.682 54.8323,-41.6422 -0.0493341,-41.6422 C-56.5823,-41.6422 -102.411,-20.4628 -102.411,5.66336 Z " fill="#ff7502" fill-opacity="0.75" />				<path d="M102.349,5.69979 C102.349,-20.4264 56.5201,-41.6058 -0.012911,-41.6058 C-56.5459,-41.6058 -102.375,-20.4264 -102.375,5.69979 C-102.375,31.826 -56.5459,53.0054 -0.012911,53.0054 C56.5201,53.0054 102.349,31.826 102.349,5.69979 Z " fill="none" stroke-width="0.55" stroke="#000000" stroke-linecap="square" stroke-linejoin="miter" />				<path d="M102.313,-72.205 C102.313,-98.3312 56.4837,-119.511 -0.0493341,-119.511 C-56.5823,-119.511 -102.411,-98.3312 -102.411,-72.205 C-102.411,-46.0789 -56.5823,-24.8995 -0.0493341,-24.8995 C56.4837,-24.8995 102.313,-46.0789 102.313,-72.205 Z " fill="#87c423" fill-opacity="1.00" />				<path d="M-102.687,-68.4586 C-102.687,-42.6409 -102.687,76.6516 -102.687,80.0326 C-102.687,106.159 -56.8578,127.338 -0.32489,127.338 C56.2081,127.338 102.037,106.159 102.037,80.0326 C102.037,65.8486 102.037,-72.205 102.037,-72.205 L101.76,-72.205 C101.761,-72.1223 101.762,-72.0394 101.762,-71.9566 C101.762,-45.8304 55.9325,-24.651 -0.600491,-24.651 C-54.5877,-24.651 -98.8132,-43.9659 -102.687,-68.4586 Z " fill="#9ad33d" fill-opacity="0.75" />				<path d="M-0.324934,-72.205 C35.4605,-72.205 64.4296,-84.5373 64.4296,-99.7713 C64.4296,-115.005 35.4605,-127.338 -0.324934,-127.338 C-36.1103,-127.338 -65.0794,-115.005 -65.0794,-99.7713 C-65.0794,-84.5373 -36.1103,-72.205 -0.324934,-72.205 Z " fill="#000000" fill-opacity="1.00" />				<path d="M64.7051,-99.7712 C64.7051,-84.5373 35.736,-72.205 -0.0493335,-72.205 C-35.8346,-72.205 -64.8038,-84.5373 -64.8038,-99.7713 C-64.8038,-83.4204 -64.8038,-80.0082 -64.8038,-73.6002 C-64.8038,-58.3662 -35.8346,-46.0339 -0.0493335,-46.0339 C35.736,-46.0339 64.7051,-58.3662 64.7051,-73.6002 C64.7051,-80.0006 64.7051,-95.1086 64.7051,-99.7712 Z M64.7051,-99.7713 C64.6778,-100.704 64.7051,-100.239 64.7051,-99.7713 Z M-64.8038,-99.7713 C-64.8038,-100.692 -64.8038,-100.226 -64.8038,-99.7713 Z " fill="#ebebf5" fill-opacity="1.00" />				<path d="M-0.0493335,-72.3076 C35.736,-72.3076 64.7051,-84.6399 64.7051,-99.8739 C64.7051,-115.108 35.736,-127.44 -0.0493335,-127.44 C-35.8346,-127.44 -64.8038,-115.108 -64.8038,-99.8739 C-64.8038,-84.6399 -35.8346,-72.3076 -0.0493335,-72.3076 Z M-0.0493335,-76.5762 C-33.7139,-76.5762 -60.5353,-87.9941 -60.5353,-99.8739 C-60.5353,-111.754 -33.7139,-123.171 -0.0493335,-123.171 C33.6153,-123.171 60.4366,-111.754 60.4366,-99.8739 C60.4366,-87.9941 33.6153,-76.5762 -0.0493335,-76.5762 Z " fill="#eeeeee" fill-opacity="1.00" />				<path d="M64.4296,-97.2189 L64.4296,-73.6105 L64.4296,-73.3349 L64.702,-73.3349 C64.7041,-73.4266 64.7051,-73.5185 64.7051,-73.6105 C64.7051,-80.0109 64.7051,-95.119 64.7051,-99.7815 C64.7051,-98.9174 64.6119,-98.0626 64.4296,-97.2189 Z M62.5678,-92.7256 C62.4248,-92.4946 62.2747,-92.2647 62.118,-92.036 L62.118,-66.279 L62.118,-66.0034 L62.212,-66.0034 C62.3717,-66.2411 62.5242,-66.48 62.6692,-66.7202 L62.6692,-92.45 L62.6692,-92.7256 L62.5678,-92.7256 Z M56.1449,-86.0665 C55.9637,-85.9322 55.7799,-85.7986 55.5936,-85.6657 L55.5936,-59.6931 L55.5936,-59.4946 C55.7799,-59.6275 55.9637,-59.7611 56.1449,-59.8954 L56.1449,-85.8642 L56.1449,-86.0665 Z M46.0231,-80.4038 C45.8404,-80.3252 45.6567,-80.2469 45.4718,-80.1691 L45.4718,-54.1146 L45.4718,-53.998 C45.6567,-54.0758 45.8404,-54.1541 46.0231,-54.2327 L46.0231,-80.2857 L46.0231,-80.4038 Z M32.919,-76.046 C32.7359,-75.9999 32.5521,-75.9541 32.3679,-75.9086 L32.3679,-49.8058 L32.3679,-49.7375 C32.5521,-49.7829 32.7359,-49.8287 32.919,-49.8749 L32.919,-75.9768 L32.919,-76.046 Z M17.4483,-73.232 C17.2649,-73.2102 17.0812,-73.1887 16.8972,-73.1675 L16.8972,-47.0284 L16.8972,-46.9964 C17.0812,-47.0176 17.2649,-47.039 17.4483,-47.0609 L17.4483,-73.1994 L17.4483,-73.232 Z M0.226267,-72.2157 C0.134445,-72.2155 0.0425785,-72.2154 -0.0493335,-72.2154 C-0.141245,-72.2154 -0.233112,-72.2155 -0.324934,-72.2157 L-0.324934,-72.2154 L-0.324934,-46.0446 C-0.233112,-46.0444 -0.141245,-46.0443 -0.0493335,-46.0443 C0.0425785,-46.0443 0.134445,-46.0444 0.226267,-46.0446 L0.226267,-72.2154 L0.226267,-72.2157 Z M-16.9959,-73.1675 C-17.1799,-73.1887 -17.3636,-73.2102 -17.547,-73.232 L-17.547,-73.1994 L-17.547,-47.0609 C-17.3636,-47.039 -17.1799,-47.0176 -16.9959,-46.9964 L-16.9959,-47.0284 L-16.9959,-73.1675 Z M-32.4666,-75.9086 C-32.6508,-75.9541 -32.8346,-75.9999 -33.0177,-76.046 L-33.0177,-75.9768 L-33.0177,-49.8749 C-32.8346,-49.8287 -32.6508,-49.7829 -32.4666,-49.7375 L-32.4666,-49.8058 L-32.4666,-75.9086 Z M-45.5705,-80.1691 C-45.7553,-80.2469 -45.939,-80.3252 -46.1216,-80.4038 L-46.1216,-80.2857 L-46.1216,-54.2327 C-45.939,-54.1541 -45.7553,-54.0758 -45.5705,-53.998 L-45.5705,-54.1146 L-45.5705,-80.1691 Z M-55.6923,-85.6657 C-55.8786,-85.7986 -56.0624,-85.9322 -56.2435,-86.0665 L-56.2435,-85.8642 L-56.2435,-59.8954 C-56.0624,-59.7611 -55.8786,-59.6275 -55.6923,-59.4946 L-55.6923,-59.6931 L-55.6923,-85.6657 Z M-62.2166,-92.036 C-62.3734,-92.2647 -62.5234,-92.4946 -62.6665,-92.7256 L-62.7678,-92.7256 L-62.7678,-92.45 L-62.7678,-66.7202 C-62.6228,-66.48 -62.4704,-66.2411 -62.3107,-66.0034 L-62.2166,-66.0034 L-62.2166,-66.279 L-62.2166,-92.036 Z M-64.5282,-97.2189 C-64.7106,-98.0627 -64.8038,-98.9174 -64.8038,-99.7816 C-64.8038,-83.4308 -64.8038,-80.0186 -64.8038,-73.6105 C-64.8038,-73.5185 -64.8027,-73.4266 -64.8007,-73.3349 L-64.5282,-73.3349 L-64.5282,-73.6105 L-64.5282,-97.2189 Z M64.6976,-100.057 C64.6994,-99.9835 64.7019,-99.8925 64.7051,-99.7816 C64.7051,-99.8777 64.704,-99.9735 64.7024,-100.057 L64.6976,-100.057 Z M-64.8038,-100.309 C-64.8038,-100.332 -64.8038,-100.2 -64.8038,-99.7816 C-64.8038,-100.03 -64.8038,-100.281 -64.8038,-100.309 L-65.0794,-100.057 L-65.0794,-99.7815 L-65.0794,-73.6105 L-65.0794,-73.3349 L-64.8007,-73.3349 L-64.8038,-100.309 Z " fill="#000000" fill-opacity="1.00" />			</g>		</g>	</svg>